<?xml version="1.0" encoding="UTF-8" standalone="no"?>
<!-- Generator: Adobe Illustrator 14.0.0, SVG Export Plug-In . SVG Version: 6.00 Build 43363)  -->

<svg
   version="1.1"
   id="katman_1"
   x="0px"
   y="0px"
   width="10.123"
   height="21.128"
   viewBox="0 0 10.123 21.128"
   enable-background="new 0 0 120 31.1"
   xml:space="preserve"
   sodipodi:docname="TC_Ziraat_Bankası_logo.svg"
   inkscape:version="1.3 (0e150ed, 2023-07-21)"
   xmlns:inkscape="http://www.inkscape.org/namespaces/inkscape"
   xmlns:sodipodi="http://sodipodi.sourceforge.net/DTD/sodipodi-0.dtd"
   xmlns="http://www.w3.org/2000/svg"
   xmlns:svg="http://www.w3.org/2000/svg"><defs
   id="defs2" /><sodipodi:namedview
   id="namedview2"
   pagecolor="#ffffff"
   bordercolor="#000000"
   borderopacity="0.25"
   inkscape:showpageshadow="2"
   inkscape:pageopacity="0.0"
   inkscape:pagecheckerboard="0"
   inkscape:deskcolor="#d1d1d1"
   inkscape:zoom="3.4916667"
   inkscape:cx="54.988067"
   inkscape:cy="10.596659"
   inkscape:window-width="1472"
   inkscape:window-height="891"
   inkscape:window-x="0"
   inkscape:window-y="37"
   inkscape:window-maximized="1"
   inkscape:current-layer="katman_1" />&#10;<path
   fill="#ed1c24"
   d="m 0,2.891 4.742,3.647 v 3.647 l -1.031,1.031 1.031,0.792 v 3.649 L 1.65,13.279 0.619,14.31 4.743,17.482 v 3.646 L 0,17.482 V 13.834 L 1.032,12.803 0,12.009 V 8.362 L 3.093,10.741 4.124,9.71 0,6.538 Z M 7.387,2.806 6.111,3.788 V 2.42 L 7.387,1.438 V 0.07 L 5.38,1.614 V 5.718 L 7.386,4.174 V 2.806 Z M 2.645,1.368 3.374,1.929 V 3.297 L 3.009,3.017 V 4.385 L 4.378,5.438 V 4.069 L 4.013,3.788 V 2.42 L 4.742,2.982 V 1.613 L 2.645,0 Z M 9.21,7.813 C 9.21,7.663 9.086,7.541 8.937,7.541 8.877,7.541 8.809,7.55 8.764,7.582 L 6.658,9.203 v 1.824 L 9.026,9.215 C 9.14,9.086 9.212,8.915 9.212,8.727 V 7.813 Z m 0,5.472 c 0,-0.15 -0.124,-0.271 -0.273,-0.271 -0.06,0 -0.128,0.008 -0.173,0.041 L 6.658,14.676 V 16.5 L 9.026,14.687 C 9.14,14.558 9.212,14.386 9.212,14.199 v -0.914 z m 0.913,-9.484 c 0,1.356 0,3.659 0,5.382 0,0.416 -0.175,0.792 -0.454,1.058 0.266,0.108 0.454,0.369 0.454,0.674 v 5.897 c -0.002,0.484 -0.257,0.883 -0.621,1.146 l -4.121,3.17 V 17.482 L 5.928,17.06 v -1.822 l -0.547,0.42 V 12.011 L 5.928,11.589 V 9.765 L 5.381,10.186 V 6.538 c 0,0 4.024,-3.111 4.027,-3.111 0.074,-0.05 0.163,-0.081 0.259,-0.081 0.251,10e-4 0.456,0.203 0.456,0.455"
   id="path1" />&#10;&#10;</svg>
